<svg width="100" height="98" viewBox="0 0 100 98" fill="none" xmlns="http://www.w3.org/2000/svg">
  <path
    d="M70.6055 87.9219L74.8242 79.9531L74.5117 98H70.293L70.6055 87.9219ZM79.043 71.75L83.2617 63.7812L82.9492 98H78.7305L79.043 71.75ZM87.4805 55.8125L91.6992 47.7852L91.3867 98H87.168L87.4805 55.8125ZM58.8672 60.6172L56.4648 56.2227L85.5273 0.96875H90.2734L58.8672 60.6172ZM54.0039 51.418L51.543 46.9648L75.918 0.96875H80.7227L54.0039 51.418ZM26.0742 80.4219L30.293 88.3906L29.9805 98H25.7617L26.0742 80.4219ZM17.6367 64.3672L21.8555 72.3359L21.543 98H17.3242L17.6367 64.3672ZM9.19922 48.3125L13.418 56.3398L13.1055 98H8.88672L9.19922 48.3125ZM43.3008 98H38.5547L4.98047 34.3086L4.66797 98H0.449219V0.96875H5.19531L43.3008 98ZM52.8516 98H48.0469L10 0.96875H14.8047L52.8516 98ZM95.918 34.3086L62.3438 98H57.5391L19.5508 0.96875H24.2969L59.6875 68.2344L95.0195 0.96875H99.8242V98H95.6055L95.918 34.3086Z"
    fill="white" />
</svg>